<svg width="74" height="74" viewBox="0 0 74 74" fill="none" xmlns="http://www.w3.org/2000/svg">
  <path d="M16.123 59.7749C15.7495 59.4216 15.3725 59.0659 14.9956 58.7067C20.6114 53.1976 26.3303 46.4295 26.3303 37.2488C26.3303 28.0682 20.6114 21.3001 14.9956 15.7898C15.3725 15.4306 15.7495 15.0749 16.123 14.7216C20.9646 10.1479 25.1448 6.19777 25.1448 1.68332V0.497803H22.7737V1.68332C22.7737 2.46458 22.5722 3.25413 22.2237 4.05436H4.35553C4.00699 3.25413 3.80545 2.46458 3.80545 1.68332V0.497803H1.43442V1.68332C1.43442 6.19777 5.61455 10.1479 10.4562 14.7228C10.8296 15.0761 11.2066 15.4318 11.5836 15.791C5.96784 21.3001 0.248901 28.0682 0.248901 37.2488C0.248901 46.4295 5.96784 53.1976 11.5836 58.7079C11.2066 59.0671 10.8296 59.4228 10.4562 59.776C5.61455 64.3498 1.43442 68.2999 1.43442 72.8144V73.9999H3.80545V72.8144C3.80545 72.0331 4.00699 71.2436 4.35553 70.4433H22.2248C22.5722 71.2436 22.7737 72.0331 22.7737 72.8144V73.9999H25.1448V72.8144C25.1448 68.2999 20.9646 64.3498 16.123 59.7749ZM5.77341 6.42539H20.8058C20.2272 7.19953 19.5408 7.98909 18.7809 8.79642H7.79828C7.03836 7.98909 6.35076 7.19953 5.77341 6.42539ZM10.1598 11.1675H16.4182C15.7958 11.7673 15.1532 12.3755 14.4941 12.9991C14.0981 13.3737 13.695 13.7543 13.2896 14.1396C12.883 13.7543 12.4811 13.3737 12.0851 12.9991C11.426 12.3755 10.7822 11.7673 10.1598 11.1675ZM13.2896 17.4353C14.7241 18.8389 16.1419 20.2959 17.4519 21.8371H9.12724C10.4372 20.2959 11.8551 18.8389 13.2896 17.4353ZM4.45749 28.9502H15.6606V26.5792H5.70702C6.21561 25.7197 6.76806 24.8863 7.36201 24.0754V24.2082H19.2172V24.0754C19.8111 24.8851 20.3636 25.7197 20.8722 26.5792H18.0317V28.9502H22.1229C22.4702 29.7173 22.7631 30.5115 23.0203 31.3213H3.56005C3.81731 30.5115 4.10895 29.7173 4.45749 28.9502ZM2.94832 33.6923H23.6321C23.7743 34.4605 23.8561 35.2548 23.9059 36.0633H2.67447C2.72308 35.2548 2.80488 34.4605 2.94832 33.6923ZM3.55887 43.1764H7.36201V40.8054H2.94714C2.80488 40.0372 2.72308 39.2429 2.67328 38.4344H23.9047C23.8561 39.2429 23.7743 40.0372 23.6309 40.8054H9.73304V43.1764H23.0191C22.7619 43.9861 22.4702 44.7804 22.1217 45.5475H4.4563C4.10895 44.7804 3.81612 43.9861 3.55887 43.1764ZM7.36201 50.4223C6.76806 49.6114 6.21561 48.778 5.70702 47.9185H20.8722C20.3648 48.778 19.8111 49.6114 19.2172 50.4223V50.2895H7.36201V50.4223ZM9.12724 52.6606H17.4519C16.1419 54.2017 14.7241 55.6587 13.2896 57.0624C11.8551 55.6587 10.4372 54.2017 9.12724 52.6606ZM12.0851 61.4986C12.4811 61.124 12.8841 60.7434 13.2896 60.3581C13.6962 60.7446 14.0981 61.1252 14.4941 61.4986C15.1532 62.1222 15.797 62.7304 16.4182 63.3302H10.1598C10.7822 62.7304 11.426 62.1222 12.0851 61.4986ZM5.77341 68.0723C6.35195 67.2982 7.03836 66.5086 7.79828 65.7013H18.7821C19.542 66.5086 20.2284 67.2982 20.807 68.0723H5.77341Z" fill="white" />
  <path d="M67.8234 64.5159H65.9112C68.7066 59.4549 70.1945 53.736 70.1945 47.9186C70.1945 38.3479 66.1862 29.2183 59.1834 22.7193L62.4021 19.5006L60.0298 17.1284L64.2823 12.8783L65.4726 14.0674L70.6817 8.81195L61.8935 0L56.6843 5.28622L57.8603 6.46226L53.6043 10.704L51.2416 8.3413L34.6444 24.9385L32.2733 22.5675L27.0404 27.8004L42.943 43.7029L48.1759 38.47L45.8048 36.099L52.4556 29.4483C55.8758 32.5365 58.3962 36.5353 59.6896 40.9241C57.5651 41.3912 55.9683 43.2832 55.9683 45.5476C55.9683 48.1237 58.0358 50.2162 60.5965 50.2778C60.5029 51.2689 60.3464 52.2529 60.1353 53.2238C59.2083 52.8658 58.2053 52.6607 57.1538 52.6607H39.371C36.1025 52.6607 33.4434 55.3198 33.4434 58.5883V59.7738H48.95C48.8943 60.1626 48.8552 60.5562 48.8552 60.9593V64.5159H32.2579C28.9894 64.5159 26.3303 67.175 26.3303 70.4435V74H73.751V70.4435C73.751 67.175 71.0919 64.5159 67.8234 64.5159ZM61.903 3.36687L67.3362 8.81669L65.4631 10.7076L60.0251 5.27318L61.903 3.36687ZM59.5379 8.13739L62.6048 11.202L58.3535 15.4509L55.2818 12.3792L59.5379 8.13739ZM42.943 40.3491L30.3931 27.7992L32.2733 25.919L44.8232 38.4689L42.943 40.3491ZM44.1285 34.4215L36.3207 26.6137L51.2416 11.6928L59.0494 19.5006L44.1285 34.4215ZM54.1343 27.7696L57.5071 24.3968C64.0665 30.4512 67.8234 38.9774 67.8234 47.9186C67.8234 52.1225 66.9959 56.2718 65.4097 60.1223C65.1785 57.8248 64.0025 55.8059 62.2823 54.4485C62.6676 52.8836 62.9142 51.2796 63.0173 49.6649C64.4625 48.8516 65.4524 47.3211 65.4524 45.5476C65.4524 43.4516 64.0772 41.6899 62.1887 41.0651C60.8644 35.9816 58.0405 31.3285 54.1343 27.7696ZM58.3393 45.5476C58.3393 44.24 59.4027 43.1765 60.7103 43.1765C62.018 43.1765 63.0814 44.24 63.0814 45.5476C63.0814 46.8552 62.018 47.9186 60.7103 47.9186C59.4027 47.9186 58.3393 46.8552 58.3393 45.5476ZM36.0172 57.4028C36.5068 56.0228 37.8251 55.0317 39.371 55.0317H51.3566C50.6607 55.7122 50.0905 56.5148 49.6672 57.4028H36.0172ZM71.38 71.629H28.7014V70.4435C28.7014 68.4826 30.2971 66.8869 32.2579 66.8869H53.5972V64.5159H51.2262V60.9593C51.2262 57.6908 53.8853 55.0317 57.1538 55.0317C60.4222 55.0317 63.0814 57.6908 63.0814 60.9593V64.5159H55.9683V66.8869H67.8234C69.7843 66.8869 71.38 68.4826 71.38 70.4435V71.629Z" fill="white" />
</svg>
