<svg width="74" height="74" viewBox="0 0 74 74" fill="none" xmlns="http://www.w3.org/2000/svg">
  <path d="M56.668 4.93376C53.6328 4.93276 50.6498 4.14493 48.01 2.64716C44.7423 0.861314 41.0688 -0.0503674 37.3453 0.000425054C37.2294 0.000425054 37.1159 0.0102917 37 0.0127584C36.8841 0.015225 36.7706 0.000425054 36.6547 0.000425054C32.9312 -0.0503674 29.2577 0.861314 25.99 2.64716C23.3493 4.15928 20.3565 4.94801 17.3135 4.93376H17.2667C7.74533 4.93376 0 10.1902 0 16.6504C0.0684725 19.1351 1.12178 21.4906 2.92793 23.1982C2.62564 23.852 2.46829 24.5634 2.46667 25.2838C2.46667 29.0874 6.8006 32.0671 12.3333 32.0671C17.8661 32.0671 22.2 29.0874 22.2 25.2838C22.118 23.3392 21.0808 21.5606 19.4287 20.5317C19.9191 19.6412 20.6305 18.8919 21.4945 18.3561C22.6536 17.6852 24.1323 17.9994 24.9183 19.0838C25.5966 20.1617 25.7631 25.0593 25.8951 28.9949C26.0875 34.6978 26.286 40.5956 27.6587 43.4976C27.9503 44.1134 28.6858 44.3762 29.3015 44.0847C29.9173 43.7932 30.1801 43.0577 29.8886 42.4419C28.7354 40.0024 28.5319 34.1107 28.3605 28.9122C28.1619 23.0218 27.9905 19.3317 27.0038 17.7691C25.5207 15.5726 22.596 14.8894 20.2933 16.2015C19.017 16.9747 17.9688 18.0728 17.2556 19.3835C15.6834 18.7878 14.0145 18.4884 12.3333 18.5004C9.45514 18.3977 6.63964 19.3568 4.42273 21.1953C3.21792 19.9832 2.5187 18.3586 2.46667 16.6504C2.46667 11.5494 9.1057 7.40042 17.3246 7.40042H17.3764C19.0212 7.39742 20.6593 7.19028 22.253 6.78376C21.4245 8.07196 20.9784 9.56881 20.9667 11.1004C20.9667 11.7816 21.5188 12.3338 22.2 12.3338C22.8812 12.3338 23.4333 11.7816 23.4333 11.1004C23.4333 6.41376 29.4902 2.59043 37 2.47819C44.5098 2.59043 50.5667 6.41376 50.5667 11.1004C50.5667 11.7816 51.1189 12.3338 51.8 12.3338C52.4812 12.3338 53.0333 11.7816 53.0333 11.1004C53.0219 9.56859 52.5754 8.07154 51.7457 6.78376C53.3585 7.19149 55.0155 7.39861 56.6791 7.40042H56.7333C64.8943 7.40042 71.5333 11.5494 71.5333 16.6504C71.4813 18.3586 70.7821 19.9832 69.5773 21.1953C67.3604 19.3568 64.5449 18.3977 61.6667 18.5004C60.0025 18.4887 58.3502 18.7813 56.7913 19.3638C56.079 18.0616 55.0353 16.9707 53.7659 16.2015C51.4623 14.8904 48.5376 15.5733 47.0529 17.7691C46.0662 19.3317 45.896 23.0218 45.6962 28.9122C45.5211 34.1107 45.3262 40.0024 44.1681 42.4419C43.8766 43.0577 44.1394 43.7932 44.7552 44.0847C45.371 44.3762 46.1065 44.1134 46.398 43.4976C47.7695 40.5956 47.9693 34.6978 48.1617 28.9949C48.2936 25.0593 48.4601 20.1617 49.1397 19.0838C49.9258 17.9987 51.4057 17.6848 52.5647 18.3574C53.4185 18.8855 54.1229 19.6234 54.6108 20.5009C52.9365 21.5283 51.8829 23.3211 51.8 25.2838C51.8 29.0874 56.1339 32.0671 61.6667 32.0671C67.1994 32.0671 71.5333 29.0874 71.5333 25.2838C71.5317 24.5634 71.3744 23.852 71.0721 23.1982C72.8782 21.4906 73.9315 19.1351 74 16.6504C74 10.1902 66.2547 4.93376 56.668 4.93376ZM12.3333 20.9671C14.0253 20.947 15.698 21.3274 17.2149 22.0771L17.2247 22.0845H17.2334C18.5934 22.6076 19.5545 23.8376 19.7333 25.2838C19.7333 27.6271 16.3441 29.6004 12.3333 29.6004C8.32253 29.6004 4.93333 27.6271 4.93333 25.2838C4.94549 24.746 5.1172 24.224 5.42667 23.784V23.7742C6.5046 22.1536 9.22903 20.9671 12.3333 20.9671ZM61.6667 29.6004C57.6559 29.6004 54.2667 27.6271 54.2667 25.2838C54.2667 22.5408 58.5118 20.9671 61.6667 20.9671C64.771 20.9671 67.4942 22.1536 68.5733 23.7729L68.5795 23.7828C68.887 24.2238 69.0566 24.7462 69.0667 25.2838C69.0667 27.6271 65.6775 29.6004 61.6667 29.6004Z" fill="white" />
  <path d="M37.0002 57.9666C37.6813 57.9666 38.2335 57.4144 38.2335 56.7332V33.7587C41.1027 33.1686 43.1631 30.6446 43.1668 27.7154V22.782C43.1668 19.3763 40.4059 16.6154 37.0002 16.6154C33.5944 16.6154 30.8335 19.3763 30.8335 22.782V27.7154C30.8372 30.6446 32.8976 33.1686 35.7668 33.7587V56.7332C35.7668 57.4144 36.319 57.9666 37.0002 57.9666ZM33.3002 27.7166V22.7833C33.3002 20.7398 34.9567 19.0833 37.0002 19.0833C39.0436 19.0833 40.7002 20.7398 40.7002 22.7833V27.7166C40.7002 29.7552 39.0511 31.4098 37.0125 31.4166H37.0002H36.9878C34.9492 31.4098 33.3002 29.7552 33.3002 27.7166Z" fill="white" />
  <path d="M8.6333 54.8834V65.9834C8.6333 71.246 22.903 74 37 74C51.097 74 65.3666 71.246 65.3666 65.9834V54.8834C65.3666 49.8415 52.7731 47.4735 41.99 46.979C41.3135 46.959 40.7429 47.4788 40.7 48.1543C40.6849 48.4811 40.8003 48.8005 41.0207 49.0422C41.2411 49.2839 41.5486 49.4281 41.8753 49.4432C56.552 50.1166 62.9 53.3713 62.9 54.8834C62.9 55.336 62.3178 55.9453 61.1289 56.5928C57.017 54.7699 50.1066 53.5193 41.9851 53.1468C41.3092 53.1263 40.7397 53.6472 40.7 54.3222C40.6849 54.649 40.8003 54.9684 41.0207 55.2101C41.2411 55.4518 41.5486 55.596 41.8753 55.611C47.2342 55.7628 52.5559 56.5536 57.7274 57.9667C52.5617 59.4057 47.2374 60.1978 41.8766 60.3248C38.7303 60.4704 35.2696 60.4704 32.1234 60.3248C26.7651 60.1968 21.4433 59.4047 16.28 57.9667C19.7417 56.9756 23.29 56.3169 26.8768 55.9995C27.3255 55.9685 27.7217 55.6956 27.9108 55.2875C28.0998 54.8794 28.0517 54.4007 27.7852 54.0384C27.5186 53.676 27.076 53.4875 26.6301 53.5465C21.9246 53.8873 17.2944 54.9157 12.8871 56.5989C11.6846 55.9477 11.1 55.3372 11.1 54.8834C11.1 53.3713 17.4479 50.1166 32.1234 49.4432C32.4504 49.4284 32.7581 49.2843 32.9788 49.0426C33.1995 48.8009 33.315 48.4813 33.3 48.1543C33.2571 47.4793 32.6872 46.9596 32.0111 46.979C21.2269 47.4735 8.6333 49.8415 8.6333 54.8834ZM12.1458 58.983C12.223 59.0335 12.3058 59.0749 12.3925 59.1063C16.9386 61.309 24.8689 62.4585 32.0087 62.7866C33.6206 62.8618 35.2992 62.9 37 62.9C38.7007 62.9 40.3793 62.8618 41.99 62.7878C49.131 62.4597 57.0626 61.3078 61.6087 59.1063C61.6953 59.0747 61.778 59.0333 61.8553 58.983C62.2253 58.7931 62.5805 58.5945 62.9024 58.3897V65.9834C62.9024 67.9197 54.0064 71.5334 37.0024 71.5334C19.9985 71.5334 11.1 67.9197 11.1 65.9834V58.391C11.4219 58.5957 11.7721 58.7931 12.1458 58.983Z" fill="white" />
</svg>
