<svg width="70" height="74" viewBox="0 0 70 74" fill="none" xmlns="http://www.w3.org/2000/svg">
  <path d="M55.0181 19.0968H58.871C64.7932 19.0968 69.6129 14.2783 69.6129 8.35484V7.16129H63.6451C60.272 7.16129 57.2607 8.72724 55.2903 11.1668V10.7419C55.2903 4.81849 50.4707 0 44.5484 0H38.5806V1.19355C38.5806 7.117 43.4003 11.9355 49.3226 11.9355H52.9032V16.2324C52.9032 18.426 52.3997 20.6283 51.4457 22.6022C51.1677 23.1798 50.8489 23.7375 50.4794 24.2947C50.2585 24.6513 50.0161 24.9952 49.7585 25.3163L47.8615 27.2214C46.6406 21.2403 41.3221 16.7097 35 16.7097H31.4193V17.9032C31.4193 25.0371 37.1423 30.8487 44.2366 31.0165C42.1216 33.9206 40.9677 37.426 40.9677 41.0579V43.5325C40.7958 43.7533 40.635 43.9777 40.5056 44.2021L39.09 46.5618L37.3871 44.8606V42.0248C37.3871 40.0672 36.8107 38.1673 35.7186 36.5297C34.919 35.3303 33.5832 34.6129 32.1472 34.6129C30.1174 34.6129 28.4209 36.0285 27.9675 37.9226C27.7944 37.5705 27.6475 37.2075 27.5607 36.8281C26.9039 33.8477 25.2307 31.1471 22.8425 29.2169C18.9454 26.1065 13.3442 25.3985 8.75241 27.4936C6.98132 28.3171 5.43694 29.4879 4.17287 30.9571L3.96773 31.1873C1.65814 33.8862 0.387085 37.3281 0.387085 40.879C0.387085 42.8448 0.76648 44.7616 1.51594 46.5734C2.26191 48.3807 3.34939 50.0049 4.74692 51.4024L6.60892 53.2644C8.10202 54.7575 9.24429 56.6079 9.91391 58.6103C10.8161 61.3174 12.4298 63.7424 14.5809 65.6248L17.0635 67.7956C19.8335 70.2165 23.1612 72.0284 26.6871 73.0343C28.9215 73.6766 31.2369 74 33.5675 74H34.6422C38.9863 74 43.0873 71.8897 45.6143 68.3569C46.4687 67.1645 47.1027 65.8491 47.5276 64.4516H51.2143L52.9178 66.1545C54.1288 67.365 55.7379 68.0323 57.4507 68.0323C59.4666 68.0323 61.3857 67.0712 62.5827 65.4662L67.498 58.9041C68.1006 58.1056 68.4193 57.1592 68.4193 56.1685V55.894C68.4193 54.6742 67.9432 53.5273 67.0789 52.663C66.2147 51.7976 65.0666 51.3226 63.848 51.3226C62.6462 51.3226 61.4679 51.811 60.617 52.663L59.1216 54.1584L53.3624 44.2901C52.7121 43.1694 51.7691 42.2299 50.6344 41.576C49.5061 40.9245 48.2188 40.5806 46.9116 40.5806C45.6475 40.5806 44.4289 40.9064 43.3548 41.4892V41.0579C43.3548 37.4464 44.6748 33.9753 47.0666 31.2974C47.2793 31.0631 47.5014 30.816 47.7922 30.5491C48.1016 30.2292 48.456 29.9116 48.8738 29.5759L50.5377 27.9109C50.7848 34.9364 56.5602 40.5806 63.6451 40.5806H64.8387V37C64.8387 30.3376 59.8471 24.832 53.4091 23.9939C53.4703 23.8745 53.5384 23.7585 53.5956 23.6384C54.2879 22.2071 54.7495 20.6674 55.0181 19.0968ZM27.3591 50.34C28.6016 49.2385 29.4845 47.7979 29.9181 46.2104L30.2258 46.8287V50.8499C29.2624 50.6256 28.3067 50.4583 27.3591 50.34ZM49.442 43.6432C50.2142 44.0896 50.8565 44.7272 51.2988 45.4906L58.6204 58.0351L62.3047 54.3507C63.1247 53.5296 64.5677 53.5296 65.3912 54.3507C65.8055 54.7645 66.0322 55.3123 66.0322 55.894V56.1673C66.0322 56.6364 65.8807 57.0852 65.5905 57.4692L60.6706 64.0361C59.92 65.0437 58.7171 65.6452 57.4507 65.6452C56.3766 65.6452 55.3667 65.2261 54.6061 64.4674L52.2039 62.0645H48.0393C48.0981 61.5575 48.129 61.0394 48.129 60.5131V54.9032H45.7419V60.5131C45.7419 61.3529 45.6522 62.1659 45.4721 62.937C45.1451 64.4038 44.539 65.7588 43.6736 66.9675C41.5931 69.8762 38.2176 71.6129 34.6422 71.6129H33.5675C31.459 71.6129 29.365 71.3192 27.3433 70.7405C24.1532 69.8296 21.1419 68.1908 18.6353 65.9995L16.1526 63.8286C14.3215 62.2271 12.9467 60.1617 12.1792 57.8562C11.3942 55.5023 10.0526 53.3315 8.29784 51.5767L6.43583 49.7147C5.26152 48.5404 4.34829 47.1772 3.72412 45.6614C3.09297 44.1397 2.77418 42.5307 2.77418 40.879C2.77418 37.8963 3.84243 35.0057 5.76738 32.7544L5.97077 32.5265C7.02328 31.3021 8.29784 30.3364 9.75073 29.661C13.5219 27.9423 18.1458 28.5234 21.3482 31.0777C23.3104 32.6641 24.6887 34.8886 25.2319 37.352C25.4335 38.2303 25.7867 39.0567 26.285 39.812L26.7623 40.5294L27.5665 42.2229L27.8387 44.0645C27.8125 46.0041 26.8614 47.8264 25.282 48.9559L19.9851 52.7382L21.3709 54.6824L24.3968 52.522C26.5595 52.5365 28.809 52.8716 31.0901 53.5319C33.138 54.1229 34.4557 54.7721 34.4691 54.7779L35.5362 52.6426C35.4831 52.6164 34.3863 52.0732 32.6152 51.5015V46.2681L30.7054 42.4357C30.5376 42.0895 30.4228 41.7742 30.3464 41.4414C30.2643 41.1331 30.2258 40.8085 30.2258 40.4495V38.9215C30.2258 37.8619 31.0877 37 32.1472 37C32.7836 37 33.3769 37.32 33.7324 37.8532C34.5617 39.098 35 40.5399 35 42.0248V45.849L39.9688 50.8179C40.6035 51.4525 40.9677 52.3384 40.9677 53.244C40.9677 54.5442 40.241 55.7174 39.0737 56.3054L32.8909 59.3971C29.4583 61.1134 25.2738 61.4584 21.8412 59.7299C20.3505 58.9886 19.0409 57.8976 18.0537 56.5752L16.141 58.0019C17.3497 59.6226 18.9541 60.9607 20.773 61.864C22.6088 62.7889 24.5838 63.2581 26.6451 63.2581C29.1721 63.2581 31.7008 62.6613 33.958 61.5336L40.1442 58.4396C42.1246 57.4418 43.3548 55.451 43.3548 53.244C43.3548 51.7084 42.7353 50.2089 41.6566 49.1301L40.829 48.3032L42.5622 45.4143C42.691 45.1899 42.8536 44.9708 43.0698 44.733C44.0256 43.6111 45.4255 42.9677 46.9116 42.9677C47.8009 42.9677 48.6757 43.2014 49.442 43.6432ZM33.8723 19.0968H35C40.4724 19.0968 45.0315 23.2445 45.6667 28.6452H44.5484C39.0282 28.6452 34.4679 24.4607 33.8723 19.0968ZM63.6451 9.54839H67.1413C66.5597 13.5923 63.0734 16.7097 58.871 16.7097H55.3748C55.9564 12.6657 59.4427 9.54839 63.6451 9.54839ZM49.3226 9.54839C45.1201 9.54839 41.6339 6.43106 41.0522 2.3871H44.5484C48.7509 2.3871 52.2371 5.50443 52.8187 9.54839H49.3226ZM62.4516 37V38.1265C57.0876 37.5309 52.9032 32.9718 52.9032 27.4516V26.3251C58.2672 26.9207 62.4516 31.4798 62.4516 37Z" fill="white" />
</svg>
