<svg height="74" viewBox="0 0 60 60" width="74" xmlns="http://www.w3.org/2000/svg"><g id="023---Laser-Cutting" transform="translate(0 -1)" style="fill: white;"><path id="Shape" d="m59.51 36.14c-5.1805409-3.1289486-7.7248608-9.2628663-6.28-15.14.0957573-.3469682-.0023404-.7186284-.256856-.973144s-.6261758-.3526133-.973144-.256856c-4.3626899 1.0818922-8.9787154-.0385023-12.36-3-.416975-.3645079-1.0504921-.321975-1.415.095s-.321975 1.0504921.095 1.415c3.4769517 3.0388868 8.1123692 4.3988043 12.68 3.72-.848902 5.7596904 1.5322443 11.5205281 6.2 15-4.6641649 3.4822638-7.0443878 9.2408677-6.2 15-5.7596904-.848902-11.5205281 1.5322443-15 6.2-3.4780719-4.6695551-9.2400306-7.0511647-15-6.2.8948865-5.7652767-1.4957353-11.5490391-6.2-15 4.2176228-3.1427078 6.5975114-8.1760784 6.35-13.43l7.85 7.82c-2.4173948 3.033692-2.6190551 7.2749466-.5004029 10.5243155 2.1186521 3.2493689 6.0808818 4.7756857 9.8319388 3.7874265 3.751057-.9882593 6.446886-4.2687185 6.6894725-8.1401829.2425864-3.8714645-2.0226562-7.462785-5.6210084-8.9115591-.5136248-.2098682-1.1001318.0363752-1.31.55s.0363752 1.1001318.55 1.31c2.7810456 1.1171152 4.542375 3.8807261 4.3806061 6.8733824s-2.2107402 5.5503002-5.0960009 6.3611217c-2.8852608.8108214-5.9665837-.3050975-7.6635649-2.7754043-1.6969811-2.4703069-1.6330675-5.746851.1589597-8.1490998l4.89 4.89c.1837887.1823408.4311318.2862966.69.29.4062651.0023626.77358-.2413038.929371-.6165185.1557909-.3752147.0690889-.807391-.219371-1.0934815l-4.89-4.89c.4796262-.3624221 1.0039408-.6615503 1.56-.89.5136248-.2098682.7598682-.7963752.55-1.31s-.7963752-.7598682-1.31-.55c-.8056882.343887-1.5595885.7982465-2.24 1.35l-7.81-7.82c4.0533117.2086965 8.0293286-1.1644455 11.09-3.83.4169749-.3645079.4595079-.998025.095-1.415-.364508-.4169749-.998025-.4595079-1.415-.095-3.3199278 2.888141-7.8257831 4.0043727-12.11 3l-2.3-2.31c1.1890174-1.3480075 2.0785924-2.9328825 2.61-4.65.58-2 .42-3.63-.45-4.5-2.46-2.47-4.62-4.64-7.09-7.09-.3900375-.38772359-1.0199625-.38772359-1.41 0-.1893127.1877666-.2957983.44336246-.2957983.71s.1064856.5222334.2957983.71l2.83 2.83c.17.17.38 1-.06 2.52-1.123306 3.4736872-3.8463128 6.196694-7.32 7.32-1.51.44-2.35.23-2.52.06l-2.81-2.83c-.1877666-.1893127-.44336246-.2957983-.71-.2957983s-.5222334.1064856-.71.2957983c-.37465369.3875966-.37465369 1.0024034 0 1.39l7.07 7.07c.64399188.5638884 1.48600148.8481566 2.34.79 2.5371934-.1893677 4.9364263-1.228683 6.81-2.95l2.31 2.3c1.3420941 5.8164322-1.2133343 11.8356168-6.33 14.91-.3035865.1801377-.489706.5069924-.489706.86s.1861195.6798623.489706.86c5.2307949 3.0952855 7.7896868 9.2724833 6.28 15.16-.0957573.3469682.0023404.7186284.256856.973144s.6261758.3526133.973144.256856c5.8839907-1.4613065 12.0329955 1.0859066 15.16 6.28.1801377.3035865.5069924.489706.86.489706s.6798623-.1861195.86-.489706c3.1264391-5.1721685 9.249219-7.7152279 15.12-6.28.3469682.0957573.7186284-.0023404.973144-.256856s.3526133-.6261758.256856-.973144c-1.4613065-5.8839907 1.0859066-12.0329955 6.28-15.16.2942169-.1823393.4732173-.5038624.4732173-.85s-.1790004-.6676607-.4732173-.85zm-48.21-16.52c-1.51.44-2.35.23-2.52.06l-2.15-2.15c4.9407393-1.1007053 8.7992947-4.9592607 9.9-9.9l2.15 2.15c.17.17.38 1-.06 2.52-1.1175179 3.4772251-3.8427749 6.2024821-7.32 7.32z"/><path id="Shape" d="m37 2c0-.55228475-.4477153-1-1-1s-1 .44771525-1 1v2c0 .55228475.4477153 1 1 1s1-.44771525 1-1z"/><path id="Shape" d="m37 8c0-.55228475-.4477153-1-1-1s-1 .44771525-1 1v2c0 .5522847.4477153 1 1 1s1-.4477153 1-1z"/><path id="Shape" d="m37 14c0-.5522847-.4477153-1-1-1s-1 .4477153-1 1v2c0 .5522847.4477153 1 1 1s1-.4477153 1-1z"/><path id="Shape" d="m37 20c0-.5522847-.4477153-1-1-1s-1 .4477153-1 1v2c0 .5522847.4477153 1 1 1s1-.4477153 1-1z"/><path id="Shape" d="m36 25c-.5522847 0-1 .4477153-1 1v2c0 .5522847.4477153 1 1 1s1-.4477153 1-1v-2c0-.5522847-.4477153-1-1-1z"/></g></svg>