<svg width="17" height="17" viewBox="0 0 17 17" fill="none" xmlns="http://www.w3.org/2000/svg">
<g clip-path="url(#clip0)">
<path d="M15.506 2.02539H1.49425C1.26425 2.02539 1.04893 2.08194 0.854126 2.17514L8.46691 9.78792L10.1732 8.14811C10.1732 8.14811 10.1733 8.14795 10.1733 8.14788C10.1734 8.14781 10.1735 8.14775 10.1735 8.14775L16.1463 2.17527C15.9515 2.082 15.736 2.02539 15.506 2.02539Z" fill="#3650A7"/>
<path d="M16.8505 2.87964L11.2297 8.50006L16.8503 14.1206C16.9435 13.9258 17 13.7105 17 13.4805V3.51953C17 3.28966 16.9436 3.07437 16.8505 2.87964Z" fill="#3650A7"/>
<path d="M0.149746 2.87952C0.0565449 3.07432 0 3.28964 0 3.51964V13.4806C0 13.7104 0.0564785 13.9258 0.149613 14.1205L5.77034 8.50011L0.149746 2.87952Z" fill="#3650A7"/>
<path d="M10.5254 9.20441L8.81892 10.8444C8.72164 10.9417 8.59421 10.9903 8.4668 10.9903C8.3394 10.9903 8.21194 10.9417 8.11469 10.8444L6.47458 9.20435L0.85376 14.8248C1.0486 14.9181 1.26405 14.9747 1.49412 14.9747H15.5058C15.7358 14.9747 15.9512 14.9181 16.146 14.8249L10.5254 9.20441Z" fill="#3650A7"/>
</g>
<defs>
<clipPath id="clip0">
<rect width="17" height="17" fill="white"/>
</clipPath>
</defs>
</svg>
