<svg width="17" height="17" viewBox="0 0 17 17" fill="none" xmlns="http://www.w3.org/2000/svg">
<g clip-path="url(#clip0)">
<path d="M16.6694 13.5177L14.7848 12.2612L13.1094 11.1445C12.7861 10.9294 12.3516 10.9999 12.1129 11.3063L11.0762 12.639C10.8535 12.9282 10.4529 13.0113 10.1336 12.8345C9.43013 12.4432 8.5983 12.0748 6.76292 10.2371C4.92754 8.39933 4.55676 7.56986 4.16547 6.86643C3.98866 6.54708 4.07177 6.14649 4.36096 5.92383L5.69369 4.88714C6.00005 4.64848 6.07061 4.21396 5.85549 3.8906L4.77308 2.26682L3.48225 0.330567C3.26255 0.00099677 2.82275 -0.0979474 2.48308 0.105751L0.994406 0.998839C0.592088 1.23587 0.296351 1.61863 0.168454 2.06777C-0.238644 3.55203 -0.320721 6.82625 4.92664 12.0736C10.174 17.321 13.4479 17.2386 14.9322 16.8315C15.3813 16.7036 15.7641 16.4079 16.0011 16.0055L16.8942 14.5169C17.0979 14.1772 16.999 13.7374 16.6694 13.5177Z" fill="#ffffff"/>
<path d="M9.67223 2.63783C12.4228 2.64088 14.6519 4.86992 14.6549 7.62053C14.6549 7.78239 14.7862 7.91365 14.948 7.91365C15.1099 7.91365 15.2412 7.78243 15.2412 7.62053C15.2378 4.54632 12.7465 2.05502 9.67226 2.05164C9.5104 2.05164 9.37915 2.18285 9.37915 2.34475C9.37912 2.50658 9.51033 2.63783 9.67223 2.63783Z" fill="#ffffff"/>
<path d="M9.67226 4.39653C11.452 4.39862 12.8943 5.84088 12.8963 7.62062C12.8963 7.78248 13.0276 7.91373 13.1895 7.91373C13.3513 7.91373 13.4826 7.78251 13.4826 7.62062C13.4802 5.51726 11.7757 3.81273 9.67226 3.8103C9.5104 3.8103 9.37915 3.94152 9.37915 4.10342C9.37915 4.26531 9.51037 4.39653 9.67226 4.39653Z" fill="#ffffff"/>
<path d="M9.67223 6.15504C10.4812 6.15601 11.1368 6.81156 11.1377 7.62055C11.1377 7.78241 11.269 7.91366 11.4308 7.91366C11.5927 7.91366 11.724 7.78244 11.724 7.62055C11.7227 6.48797 10.8048 5.57014 9.67226 5.56885C9.5104 5.56885 9.37915 5.70006 9.37915 5.86196C9.37912 6.02382 9.51033 6.15504 9.67223 6.15504Z" fill="#ffffff"/>
</g>
<defs>
<clipPath id="clip0">
<rect width="17" height="17" fill="white"/>
</clipPath>
</defs>
</svg>
