<svg width="74" height="74" viewBox="0 0 74 74" fill="none" xmlns="http://www.w3.org/2000/svg">
  <g clip-path="url(#clip0)">
    <path d="M71.9074 24.7962C71.8417 24.833 64.6688 28.3668 57.6584 28.3668C50.5053 28.3668 40.7874 25.9615 40.6916 25.9368C40.2851 25.8351 39.8545 25.9465 39.5486 26.2331C39.2427 26.5198 39.103 26.9419 39.1783 27.3544L41.3781 39.4668H25.455L23.6556 24.1736C23.3382 21.4811 24.1874 18.7813 25.9886 16.7549C27.7892 14.7284 30.3709 13.568 33.082 13.5668H71.2251V11.1001H33.082C29.6675 11.1013 26.4161 12.5617 24.147 15.1132C21.8779 17.6648 20.8071 21.0643 21.2046 24.456L22.9709 39.4668H21.8917C21.2106 39.4668 20.6584 40.019 20.6584 40.7001V51.8001H0.925049V54.2668H5.85838V71.5334H0.925049V74.0001H56.425C57.1062 74.0001 57.6584 73.4479 57.6584 72.7668H68.7584V70.3001H57.6584V56.7334H68.7584V54.2668H57.6584V53.0334C57.6584 52.3523 57.1062 51.8001 56.425 51.8001H46.5584V40.7001C46.5584 40.019 46.0062 39.4668 45.3251 39.4668H43.8882L41.9406 28.76C47.0998 29.9614 52.3643 30.6558 57.6584 30.8334C62.9826 30.6166 68.2062 29.3153 73.0094 27.01L71.9074 24.7962ZM8.32505 54.2668H10.7917V71.5334H8.32505V54.2668ZM55.1917 54.2668V71.5334H39.0982C40.1045 70.9011 41.0373 70.1598 41.8804 69.3221C44.8854 66.3333 46.5698 62.2666 46.5584 58.0282V54.2668H55.1917ZM44.0917 58.0282C44.0923 65.4872 38.0455 71.534 30.5865 71.5334H13.2584V54.2668H21.8917C22.5728 54.2668 23.125 53.7145 23.125 53.0334V41.9334H44.0917V58.0282Z" fill="white" />
    <path d="M10.7916 37.0001V34.5334H13.2583V32.0668H10.7916V29.6001H8.32494V32.0668H5.85828V34.5334H8.32494V37.0001H10.7916Z" fill="white" />
    <path d="M15.725 8.6334V6.16673H18.1916V3.70007H15.725V1.2334H13.2583V3.70007H10.7916V6.16673H13.2583V8.6334H15.725Z" fill="white" />
    <path d="M47.7917 7.4V4.93333H50.2584V2.46667H47.7917V0H45.3251V2.46667H42.8584V4.93333H45.3251V7.4H47.7917Z" fill="white" />
    <path d="M58.8917 43.1666V40.6999H61.3584V38.2333H58.8917V35.7666H56.425V38.2333H53.9584V40.6999H56.425V43.1666H58.8917Z" fill="white" />
    <path d="M36.6917 16.0334H60.125V18.5001H36.6917V16.0334Z" fill="white" />
    <path d="M62.5917 16.0334H65.0583V18.5001H62.5917V16.0334Z" fill="white" />
  </g>
  <defs>
    <clipPath id="clip0">
      <path d="M0 0H74V74H0V0Z" fill="white" />
    </clipPath>
  </defs>
</svg>
