<svg width="74" height="74" viewBox="0 0 74 74" fill="none" xmlns="http://www.w3.org/2000/svg">
  <path d="M2.27802 64.1096C2.85502 63.951 3.19433 63.3542 3.03512 62.7767C1.6011 57.5679 1.93081 49.6148 4.04288 38.4627C5.4306 31.1351 7.66632 24.795 10.6885 19.6178C12.8604 15.8973 15.3801 12.8548 18.1781 10.5739C19.9588 9.12182 22.4807 9.09811 24.3111 10.5169C25.6824 11.5794 26.387 13.2511 26.1951 14.9877C25.801 18.5632 25.9664 23.7753 28.8661 28.686C28.4731 29.1704 28.0339 29.6926 27.5438 30.2521C27.5427 30.2533 27.5416 30.2549 27.5404 30.2561C26.4807 31.4744 25.3555 32.6284 24.214 33.77C23.9345 34.0494 20.6227 37.2331 20.5409 37.1512C19.751 36.3518 18.8285 35.3344 17.9184 34.1398C17.9314 33.11 18.0319 30.0336 18.7404 27.9865C18.9363 27.4208 18.636 26.8031 18.0703 26.6078C17.5046 26.4119 16.8875 26.7117 16.6916 27.2774C16.2862 28.4478 16.0548 29.8547 15.9226 31.1154C15.1689 29.7689 14.5236 28.2964 14.1064 26.7314C13.9517 26.1533 13.3578 25.8089 12.7797 25.9636C12.201 26.1178 11.8571 26.7117 12.0113 27.2904C12.5612 29.3533 13.46 31.2599 14.4875 32.9525C13.0715 32.8136 11.2954 32.8497 9.67168 33.4962C9.11558 33.7175 8.84402 34.3481 9.06589 34.9042C9.28269 35.4502 9.92856 35.7279 10.4739 35.5106C12.6233 34.6547 15.301 35.2198 16.1942 35.4502C17.1235 36.6708 18.0612 37.7164 18.8771 38.5519C18.4655 38.8901 18.0646 39.2452 17.6756 39.6178C16.1027 41.1253 14.7195 42.9121 13.5356 44.9644C12.0181 43.6946 10.1008 41.7384 9.36286 39.4897C9.17599 38.9212 8.56342 38.6112 7.99433 38.7981C7.42581 38.985 7.11586 39.5975 7.30273 40.166C7.61325 41.1117 8.0762 42.0015 8.62778 42.8274C7.69172 42.9601 6.56314 43.2249 5.45657 43.746C4.91458 44.0006 4.68198 44.6465 4.93717 45.1879C5.18784 45.7215 5.84613 45.9586 6.37965 45.7073C7.89948 44.9926 9.52207 44.8808 10.2667 44.8706C10.9984 45.6486 11.773 46.3374 12.5075 46.9263C12.0356 47.9097 11.6014 48.9423 11.2107 50.028C10.6817 51.497 10.2713 52.935 9.95228 54.2872C9.5949 54.1799 9.21946 54.0794 8.83047 53.9908C8.52221 53.4414 7.96554 52.2965 7.84077 50.9963C7.78375 50.4006 7.25474 49.9631 6.65855 50.0207C6.06236 50.0777 5.62538 50.6073 5.6824 51.2029C5.76991 52.1169 6.01155 52.9565 6.27972 53.6509C5.53505 53.6289 4.78247 53.6808 4.05022 53.8428C3.46532 53.9727 3.09665 54.5514 3.22594 55.1357C3.35579 55.7206 3.93448 56.0893 4.51882 55.96C6.16229 55.5958 8.02087 55.9515 9.50852 56.4184C9.25503 57.8107 9.09751 59.0567 9.0021 60.0729C8.85248 61.656 10.0409 63.1465 11.6381 63.2729C13.0422 63.3841 14.3983 62.3786 14.6919 60.9988C14.7788 60.5906 14.8917 60.1034 15.034 59.5535C16.1869 60.5839 17.4809 62.0247 18.0133 63.6455C18.1967 64.2056 18.8223 64.5212 19.3812 64.3377C19.9503 64.1508 20.2597 63.5383 20.0728 62.9692C19.8391 62.2578 19.5043 61.5843 19.1057 60.9525C19.8385 60.8294 20.682 60.6087 21.5108 60.2186C22.0528 59.964 22.2848 59.3181 22.0302 58.7761C21.775 58.2341 21.1291 58.0021 20.5877 58.2567C19.4072 58.8128 18.1454 58.9184 17.513 58.933C16.9197 58.3086 16.2958 57.7542 15.7025 57.2777C16.6408 54.4181 18.2154 50.7834 20.7757 47.5157C21.115 48.0334 21.5029 48.5742 21.941 49.1219C21.7908 50.3476 21.5221 53.5905 22.457 56.1836C22.6569 56.738 23.2915 57.0349 23.8447 56.8357C24.4076 56.6324 24.7001 56.0114 24.4968 55.4485C24.0254 54.1404 23.9323 52.5641 23.9599 51.2944C24.7548 52.0283 25.6531 52.7312 26.6676 53.3579C27.1616 53.6627 27.8459 53.5131 28.1598 53.0045C28.4742 52.4952 28.3162 51.8273 27.8064 51.5128C25.1399 49.8666 23.3575 47.606 22.2538 45.7977C22.7145 45.3104 23.1983 44.8362 23.7121 44.3817C26.4694 41.9422 28.756 40.3134 30.5931 39.0042C30.7653 38.8816 30.933 38.7619 31.0984 38.6434C31.6675 41.3883 32.3721 45.9518 32.3721 54.1251C32.3721 61.8146 31.3524 66.2612 29.067 68.5432C26.5417 71.0652 22.221 71.0584 16.2416 71.0499C11.8334 71.0499 7.17401 70.4707 4.59842 66.4317C4.27661 65.927 3.60646 65.7785 3.10174 66.1003C2.59701 66.4221 2.44852 67.0928 2.77033 67.5976C5.18163 71.3785 9.22736 73.2168 15.1384 73.2168C15.8543 73.2168 16.5702 73.219 17.2861 73.219C23.2474 73.219 27.6099 73.0621 30.5993 70.0777C33.3245 67.3559 34.5406 62.4362 34.5406 54.1251C34.5406 44.6945 33.617 39.9193 33.0089 37.2246C34.1866 36.2897 35.0967 35.3852 35.7262 34.2566C35.9735 33.814 36.4308 33.5391 36.9197 33.5391H37.0721C37.5616 33.5391 38.0189 33.814 38.2657 34.2566C38.8952 35.3852 39.8052 36.2897 40.9829 37.2246C40.3755 39.9193 39.4518 44.6945 39.4518 54.1251C39.4518 62.4362 40.6674 67.3559 43.3931 70.0777C46.382 73.0626 50.7439 73.219 56.7058 73.219C57.4216 73.219 58.1375 73.2168 58.8534 73.2168C64.1265 73.2168 67.8894 71.7692 70.356 68.7911C72.4845 66.2223 73.6548 62.5322 73.9337 57.5098C74.2138 52.4873 73.6068 46.1246 72.0791 38.0591C70.618 30.343 68.2344 23.6681 64.9954 18.2194C64.6894 17.7045 64.0238 17.5357 63.5094 17.8417C62.9945 18.1477 62.8257 18.8127 63.1312 19.3276C66.2414 24.5584 68.5347 30.9962 69.949 38.4622C72.8328 53.6893 72.4314 62.8873 68.6866 67.4084C65.997 70.6547 61.6774 71.0437 57.7508 71.0499C51.7714 71.0584 47.4501 71.0652 44.9248 68.5432C42.6394 66.2612 41.6203 61.8146 41.6203 54.1251C41.6203 45.9518 42.3249 41.3883 42.894 38.6434C43.0594 38.7619 43.2271 38.8816 43.3993 39.0042C45.7705 40.6939 48.0977 42.4509 50.2798 44.3817C50.7935 44.8362 51.278 45.3104 51.7381 45.7977C50.6349 47.6054 48.8525 49.8666 46.1855 51.5128C45.6762 51.8273 45.5182 52.4952 45.8326 53.0045C46.1426 53.5069 46.8223 53.6678 47.3242 53.3579C48.3399 52.7312 49.2381 52.0272 50.0342 51.2927C50.0619 52.5601 49.9687 54.1353 49.4956 55.4479C49.246 56.1401 49.7807 56.9 50.5152 56.9C50.9595 56.9 51.3756 56.6251 51.5354 56.1836C52.4698 53.5905 52.2016 50.3476 52.0514 49.1219C52.4895 48.5737 52.8774 48.0328 53.2161 47.5157C55.777 50.7834 57.3516 54.4181 58.29 57.2777C57.6966 57.7542 57.0727 58.3086 56.4794 58.933C55.847 58.9184 54.5858 58.8128 53.4047 58.2567C52.8627 58.0021 52.2174 58.2347 51.9622 58.7761C51.7076 59.3181 51.9396 59.964 52.4816 60.2186C53.3104 60.6087 54.1545 60.8294 54.8867 60.9525C54.4881 61.5843 54.1533 62.2578 53.9196 62.9692C53.7327 63.5383 54.0421 64.1508 54.6112 64.3377C55.1617 64.5184 55.7928 64.2135 55.9792 63.6455C56.5115 62.0247 57.8055 60.5839 58.9584 59.5535C59.1007 60.1034 59.2136 60.5906 59.3005 60.9988C59.3005 61.0005 59.3011 61.0016 59.3017 61.0033C59.5952 62.3747 60.9559 63.383 62.3543 63.2729C64.0277 63.1408 65.1354 61.5527 64.9779 59.9498C64.8814 58.9562 64.7272 57.7559 64.4839 56.4184C65.971 55.9515 67.8301 55.5958 69.4736 55.96C70.0579 56.0893 70.6366 55.7201 70.7659 55.1357C70.8958 54.5514 70.5265 53.9727 69.9422 53.8428C69.2099 53.6808 68.4574 53.6289 67.7127 53.6509C67.9809 52.9565 68.2225 52.1169 68.31 51.2029C68.367 50.6073 67.9301 50.0777 67.3339 50.0207C66.7371 49.9631 66.2087 50.4006 66.1516 50.9963C66.0269 52.2993 65.4713 53.4409 65.1619 53.9908C64.773 54.0794 64.3975 54.1799 64.0401 54.2866C63.7212 52.935 63.3107 51.4965 62.7817 50.028C62.6829 49.7536 61.4471 46.9562 61.4849 46.9263C62.22 46.3368 62.9945 45.6475 63.7268 44.8695C64.467 44.8769 66.0794 44.9864 67.6128 45.7073C68.1367 45.9541 68.8006 45.7294 69.0553 45.1879C69.3099 44.6465 69.0778 44.0006 68.5358 43.7454C67.4293 43.2249 66.3007 42.9601 65.3646 42.8274C65.9162 42.0015 66.3792 41.1117 66.6891 40.166C66.876 39.5975 66.5666 38.985 65.9975 38.7981C65.429 38.6112 64.8164 38.9206 64.6296 39.4897C63.8911 41.7384 61.9744 43.6946 60.4562 44.9649C58.9799 42.4046 57.193 40.2586 55.1148 38.5519C55.9312 37.7164 56.8695 36.6702 57.7988 35.449C58.6908 35.2164 61.3562 34.6496 63.5185 35.5106C64.0672 35.7291 64.708 35.4535 64.9265 34.9042C65.1478 34.3481 64.8768 33.7175 64.3202 33.4962C62.6965 32.8497 60.9209 32.8136 59.5049 32.9525C60.5324 31.2605 61.4307 29.3533 61.9811 27.2904C62.1353 26.7122 61.7914 26.1178 61.2128 25.9636C60.6346 25.8095 60.0401 26.1533 59.886 26.732C59.4688 28.2964 58.8235 29.7694 58.0698 31.1154C57.9377 29.8547 57.7062 28.4478 57.3008 27.2774C57.1049 26.7117 56.4878 26.4119 55.9216 26.6078C55.3559 26.8037 55.0561 27.4208 55.252 27.9871C55.9605 30.0342 56.0605 33.11 56.074 34.1398C55.1639 35.3344 54.2414 36.3518 53.451 37.1518C53.4267 37.1303 53.4013 37.1089 53.377 37.088C51.2819 35.2768 49.3878 33.3031 47.4338 31.3485C46.5321 30.369 45.7671 29.4753 45.1264 28.6866C48.026 23.7748 48.1914 18.5632 47.7968 14.9877C47.6054 13.2511 48.31 11.5794 49.6813 10.5169C51.5117 9.09811 54.0331 9.12182 55.8143 10.5739C57.6136 12.0407 59.3231 13.8546 60.896 15.9656C61.2534 16.4455 61.9326 16.5448 62.4125 16.1869C62.8929 15.8295 62.9923 15.1503 62.6343 14.6699C60.9553 12.4167 59.1216 10.4728 57.1845 8.89317C54.6168 6.80029 50.9855 6.76303 48.3529 8.80284C46.3803 10.3317 45.3669 12.7328 45.6418 15.2254C45.9789 18.2803 45.8705 22.6428 43.6844 26.8178C43.602 26.7049 43.5224 26.5948 43.449 26.4915C42.8427 25.639 42.522 24.6386 42.522 23.5981V3.70361C42.522 2.06013 41.1845 0.722656 39.541 0.722656H34.452C32.8085 0.722656 31.471 2.06013 31.471 3.70361V23.5981C31.471 24.6386 31.1503 25.639 30.544 26.4915C30.4706 26.5948 30.391 26.7049 30.3085 26.8178C28.1231 22.6428 28.0141 18.2803 28.3512 15.2254C28.6261 12.7328 27.6127 10.3317 25.6401 8.80284C23.0075 6.76303 19.3761 6.80029 16.809 8.89317C13.8089 11.3389 11.1204 14.579 8.81692 18.5248C5.66942 23.9159 3.34676 30.4881 1.91331 38.0591C-0.262559 49.5436 -0.578721 57.8174 0.945064 63.3525C1.10371 63.9295 1.70046 64.2688 2.27802 64.1096ZM32.31 27.7482C33.1794 26.5271 33.6384 25.0919 33.6384 23.5981V3.70361C33.6384 3.25533 34.0031 2.89118 34.4514 2.89118H39.5405C39.9887 2.89118 40.3534 3.25533 40.3534 3.70361V23.5981C40.3534 25.0919 40.8124 26.5271 41.6813 27.7482C43.5151 30.3255 45.6362 32.6984 47.8707 34.9324C50.1313 37.193 52.7069 39.1086 54.9866 41.35C60.9739 47.2379 62.4627 56.3953 62.8291 60.2553C62.8297 60.2621 62.8303 60.2694 62.8308 60.2762C62.8681 60.6697 62.5903 61.0784 62.1816 61.1112C62.1742 61.1117 62.1669 61.1106 62.1595 61.1112C61.8101 61.1281 61.4933 60.8904 61.4205 60.5477C61.1902 59.4643 60.9435 58.347 60.5703 57.3026C59.0408 53.0795 57.3466 49.097 54.452 45.5956C51.6986 42.2651 48.1508 39.7279 44.6566 37.2382C43.0696 36.1068 41.1359 34.9522 40.1587 33.2009C38.8195 30.7992 35.174 30.7952 33.8326 33.2003C32.8536 34.9556 30.9279 36.1022 29.3347 37.2382C27.4563 38.5762 25.119 40.2423 22.2758 42.7574C18.291 46.2826 15.5653 51.0505 13.8348 56.0357C13.3228 57.5109 12.8965 59.02 12.5713 60.5477C12.4968 60.8978 12.1699 61.14 11.8097 61.1112C11.3998 61.0784 11.1232 60.6685 11.1605 60.2762C11.3033 58.7608 11.6206 56.4184 12.3178 53.7757C13.1782 50.5152 14.4655 47.3311 16.3664 44.533C17.4368 42.9573 18.7224 41.4821 20.2659 40.2163C22.2922 38.5553 24.2445 36.8023 26.1002 34.9528C28.3444 32.7165 30.4717 30.3317 32.31 27.7482Z" fill="#F9F9F9" />
</svg>
