<svg width="16" height="16" viewBox="0 0 11 11" fill="none" xmlns="http://www.w3.org/2000/svg">
<path d="M5.5 11C8.53829 11 11 8.53829 11 5.5C11 2.46171 8.53829 0 5.5 0C2.46171 0 0 2.46171 0 5.5C0 8.53829 2.46171 11 5.5 11ZM2.51671 5.38083L7.81963 3.33621C8.06575 3.24729 8.28071 3.39625 8.20096 3.76842L8.20142 3.76796L7.2985 8.02175C7.23158 8.32333 7.05238 8.39667 6.80167 8.25458L5.42667 7.24121L4.76346 7.88013C4.69012 7.95346 4.62825 8.01533 4.48617 8.01533L4.58379 6.61604L7.13212 4.31383C7.24304 4.21621 7.10738 4.16121 6.96117 4.25838L3.81196 6.24113L2.45438 5.81763C2.15967 5.72412 2.15325 5.52292 2.51671 5.38083Z" fill="#BBBEC4"/>
</svg>
