<svg width="74" height="74" viewBox="0 0 74 74" fill="none" xmlns="http://www.w3.org/2000/svg">
  <path d="M30.0487 23.1714C29.4501 23.1714 28.9647 23.6566 28.9647 24.2554V25.4141C28.9647 26.0129 29.4501 26.498 30.0487 26.498C30.6473 26.498 31.1327 26.0129 31.1327 25.4141V24.2554C31.1327 23.6567 30.6472 23.1714 30.0487 23.1714Z" fill="white" />
  <path d="M43.9514 23.1714C43.3526 23.1714 42.8674 23.6566 42.8674 24.2554V25.4141C42.8674 26.0129 43.3526 26.498 43.9514 26.498C44.5502 26.498 45.0354 26.0129 45.0354 25.4141V24.2554C45.0354 23.6567 44.5501 23.1714 43.9514 23.1714Z" fill="white" />
  <path d="M41.2474 31.6043C40.8271 31.1778 40.1407 31.1734 39.7147 31.5939C39.3189 31.9841 38.3705 32.44 37.0001 32.44C35.6296 32.44 34.6814 31.9841 34.2857 31.5939C33.8593 31.1731 33.1729 31.1779 32.7528 31.6041C32.3323 32.0304 32.337 32.7166 32.763 33.137C33.6966 34.058 35.2805 34.6079 37.0001 34.6079C38.7196 34.6079 40.3035 34.058 41.237 33.137C41.6632 32.7167 41.6678 32.0304 41.2474 31.6043Z" fill="white" />
  <path d="M31.2071 19.6958H28.8901C28.2915 19.6958 27.8062 20.181 27.8062 20.7798C27.8062 21.3786 28.2915 21.8638 28.8901 21.8638H31.2072C31.8059 21.8638 32.2912 21.3786 32.2912 20.7798C32.2912 20.181 31.8057 19.6958 31.2071 19.6958Z" fill="white" />
  <path d="M45.11 19.6958H42.7928C42.1941 19.6958 41.7089 20.181 41.7089 20.7798C41.7089 21.3786 42.1942 21.8638 42.7928 21.8638H45.11C45.7087 21.8638 46.1939 21.3786 46.1939 20.7798C46.1939 20.181 45.7087 19.6958 45.11 19.6958Z" fill="white" />
  <path d="M60.2156 51.6319L52.4025 49.2298C52.4152 48.9938 52.3978 48.755 52.3422 48.5191C52.1711 47.7949 51.6914 47.1886 51.0258 46.8557L46.1939 44.4399V40.9946C49.809 38.4804 52.3533 34.5282 52.9895 29.9737H53.6339C55.7465 29.9737 57.5586 28.404 57.7592 26.3998C57.8716 25.2766 57.5042 24.1554 56.7512 23.3233C56.3869 22.9205 55.9465 22.6018 55.4625 22.3791V10.3526C55.4625 5.92184 51.8579 2.31711 47.427 2.31711C47.4214 2.31711 47.3459 2.31711 47.2437 2.31726C45.2921 0.877733 42.4251 0 39.2447 0C32.4736 0 29.3629 1.41062 25.7612 3.04395C23.837 3.91648 21.8476 4.81864 19.0275 5.64333C18.7315 5.72991 18.4862 5.93847 18.3534 6.21698C18.2206 6.49534 18.2126 6.81721 18.3316 7.10179C18.3645 7.1807 18.8489 8.30501 20.0983 9.67082C19.5588 10.3349 18.5375 12.0333 18.5375 15.373V22.4274C17.2902 23.0221 16.3798 24.2002 16.241 25.5864C16.1284 26.7095 16.4956 27.8309 17.2486 28.6633C18.0021 29.4961 19.0781 29.9736 20.2008 29.9736H21.0099C21.6455 34.5295 24.19 38.4821 27.806 40.996V44.4398L22.9739 46.8556C22.3083 47.1886 21.8285 47.7949 21.6575 48.5191C21.6019 48.7549 21.5847 48.9936 21.5973 49.2297L13.7841 51.6318C10.3904 52.6753 8.11011 55.7617 8.11011 59.3124V72.9156C8.11011 73.5144 8.59544 73.9996 9.19409 73.9996C9.79273 73.9996 10.2781 73.5144 10.2781 72.9156V59.3125C10.2781 56.7199 11.9431 54.4661 14.4213 53.7042L22.5484 51.2055L23.9829 53.1182L22.3531 54.7481C21.3163 55.7848 21.0602 57.3625 21.7159 58.6741L24.819 64.8801H21.8641V63.647C21.8641 63.0482 21.3787 62.563 20.7801 62.563C20.1814 62.563 19.6961 63.0482 19.6961 63.647V64.8801H14.9872C14.3885 64.8801 13.9032 65.3653 13.9032 65.9641V72.9156C13.9032 73.5144 14.3885 73.9996 14.9872 73.9996H26.573C27.1716 73.9996 27.657 73.5144 27.657 72.9156V70.556L29.0792 73.4005C29.2691 73.7803 29.6518 73.9999 30.0495 73.9999C30.2124 73.9999 30.3778 73.9629 30.5334 73.8851C31.0689 73.6173 31.286 72.9663 31.0182 72.4307L23.6551 57.7043C23.4173 57.2288 23.5103 56.6569 23.8862 56.2809L26.1809 53.986C26.5623 53.6046 26.6052 53.0007 26.2816 52.5692L23.8258 49.2948C23.7441 49.1859 23.7544 49.0741 23.7678 49.0172C23.7813 48.9601 23.822 48.8556 23.9438 48.7946L28.2133 46.6599L31.2273 56.9937C31.395 57.5686 31.9965 57.8982 32.5714 57.7309C33.1462 57.5633 33.4762 56.9616 33.3086 56.3868L32.8335 54.7579C34.1663 55.2212 35.5757 55.4622 37.0003 55.4622C38.4255 55.4622 39.8342 55.2219 41.1668 54.7587L37.0001 69.0441L34.6608 61.0235C34.4931 60.4485 33.8914 60.1186 33.3166 60.2862C32.7418 60.4539 32.4119 61.0557 32.5795 61.6304L35.9595 73.2188C36.0945 73.6813 36.5184 73.9993 37.0001 73.9993C37.4819 73.9993 37.9059 73.6813 38.0408 73.2188L45.7872 46.6599L50.0564 48.7946C50.1784 48.8556 50.219 48.9603 50.2326 49.0171C50.2461 49.0741 50.2563 49.1859 50.1747 49.2948L47.7188 52.5692C47.3952 53.0006 47.4381 53.6046 47.8194 53.9862L50.1143 56.281C50.4903 56.6569 50.583 57.229 50.3454 57.7043L42.9818 72.4308C42.714 72.9663 42.9311 73.6174 43.4666 73.8852C43.6222 73.9631 43.7877 74 43.9506 74C44.3482 74 44.7311 73.7803 44.921 73.4006L52.2841 58.6743C52.9398 57.3628 52.6839 55.7851 51.6472 54.7483L50.0171 53.1182L51.4515 51.2057L59.5787 53.7045C62.0568 54.4663 63.7218 56.7201 63.7218 59.3128V72.9156C63.7218 73.5144 64.207 73.9996 64.8058 73.9996C65.4046 73.9996 65.8898 73.5144 65.8898 72.9156V59.3125C65.8896 55.7619 63.6095 52.6753 60.2156 51.6319ZM25.4887 71.8316H16.0708V67.0481H19.6958V67.1227C19.6958 67.7215 20.1811 68.2066 20.7798 68.2066C21.3784 68.2066 21.8638 67.7215 21.8638 67.1227V67.0481H25.4887V71.8316ZM26.6564 5.01838C30.1683 3.4258 32.9422 2.16796 39.2447 2.16796C43.2439 2.16796 46.8175 3.84162 47.5574 6.06117C47.7469 6.62918 48.3602 6.93572 48.9285 6.74668C49.4964 6.55734 49.8034 5.94338 49.614 5.37552C49.5517 5.1885 49.4773 5.00509 49.3931 4.825C51.6642 5.63524 53.2947 7.80666 53.2947 10.3526V22.013H52.0615C51.3815 22.013 50.8284 21.4599 50.8284 20.7799V19.6212C50.8284 14.5957 47.19 10.8996 47.035 10.7447C46.7493 10.4588 46.328 10.3563 45.9421 10.4774C39.9247 12.3777 31.4404 13.9793 25.194 10.8188C22.9713 9.69409 21.6588 8.26483 20.9685 7.31049C23.2696 6.55431 25.0533 5.74537 26.6564 5.01838ZM44.0261 44.955L41.9558 52.0532C40.4388 52.866 38.7345 53.2946 37.0001 53.2946C35.2668 53.2946 33.5609 52.8666 32.0446 52.0544L29.9739 44.955V42.2657C32.0993 43.2973 34.4832 43.8768 37 43.8768C39.5166 43.8768 41.9005 43.297 44.0261 42.2647V44.955ZM37 41.7087C29.2928 41.7087 23.0226 35.4384 23.0226 27.7312C23.0226 27.1324 22.5373 26.6472 21.9386 26.6472C21.34 26.6472 20.8547 27.1324 20.8547 27.7312V27.8058H20.2008C19.6896 27.8058 19.1995 27.5881 18.8562 27.2087C18.5085 26.8244 18.3458 26.3251 18.3981 25.8026C18.4893 24.8932 19.3539 24.1808 20.3664 24.1808H21.9386C23.8141 24.1808 25.3397 22.655 25.3397 20.7797V16.6883C25.3397 16.0896 24.8544 15.6044 24.2557 15.6044C23.6571 15.6044 23.1718 16.0896 23.1718 16.6883V20.7797C23.1718 21.4597 22.6185 22.0128 21.9386 22.0128H20.7055V15.373C20.7055 12.8508 21.3833 11.5965 21.6964 11.1518C22.3586 11.6742 23.1353 12.1916 24.0444 12.6653C26.501 13.9457 29.4249 14.6548 32.7346 14.7727C36.614 14.9122 41.0479 14.2318 45.9216 12.7532C46.7818 13.795 48.6606 16.4351 48.6606 19.621V20.7797C48.6606 22.6551 50.1864 24.1808 52.0617 24.1808H53.7995C54.3107 24.1808 54.8008 24.3985 55.1441 24.7779C55.4918 25.1622 55.6545 25.6614 55.6022 26.1838C55.5112 27.0934 54.6467 27.8058 53.6342 27.8058H53.1451V27.7425C53.1451 27.144 52.66 26.6588 52.0615 26.6585C52.0614 26.6585 52.0612 26.6585 52.0611 26.6585C51.4627 26.6585 50.9775 27.1432 50.9771 27.7416C50.9712 35.443 44.7012 41.7087 37 41.7087Z" fill="white" />
  <path d="M59.013 65.4595H57.2006V63.6471C57.2006 63.0483 56.7154 62.5631 56.1166 62.5631C55.5178 62.5631 55.0326 63.0483 55.0326 63.6471V65.4595H53.2201C52.6213 65.4595 52.1361 65.9447 52.1361 66.5435C52.1361 67.1423 52.6213 67.6275 53.2201 67.6275H55.0326V69.4399C55.0326 70.0386 55.5178 70.5238 56.1166 70.5238C56.7154 70.5238 57.2006 70.0386 57.2006 69.4399V67.6275H59.013C59.6118 67.6275 60.097 67.1423 60.097 66.5435C60.097 65.9447 59.6115 65.4595 59.013 65.4595Z" fill="white" />
</svg>
