<svg width="16" height="16" viewBox="0 0 11 11" fill="none" xmlns="http://www.w3.org/2000/svg">
<path d="M5.87398 6.21478C5.74818 6.34066 5.54417 6.34066 5.41828 6.21478L3.95382 4.75031C3.89339 4.68989 3.8594 4.60789 3.8594 4.52246C3.8594 4.43694 3.89339 4.35503 3.95382 4.29453L4.21415 4.03428L3.44952 3.26965L2.82312 3.89606C2.6123 4.10687 2.61239 4.44987 2.82312 4.66068L5.50791 7.34564C5.60937 7.44711 5.74516 7.50291 5.89027 7.50291C6.03537 7.50291 6.17116 7.44702 6.27262 7.34556L6.89902 6.71924L6.1344 5.95453L5.87398 6.21478Z" fill="#BBBEC4"/>
<path d="M10.5378 3.88246C10.5378 2.84928 10.1329 1.87543 9.39757 1.14018C8.66232 0.40493 7.68847 0 6.65537 0H4.35495C4.35495 0 4.35495 0 4.35487 0C3.32185 0 2.34801 0.40493 1.61284 1.1401C0.877586 1.87535 0.472656 2.84928 0.472656 3.88238V5.69059C0.472656 6.49063 0.716705 7.26029 1.17845 7.91632C1.58582 8.49506 2.13367 8.94707 2.77241 9.23375V10.2724C2.77241 10.8094 3.0731 10.9999 3.33058 11C3.51454 11 3.69859 10.9092 3.87768 10.7302L5.03473 9.57297H6.65546C7.68855 9.57297 8.6624 9.16804 9.39765 8.43279C10.1329 7.69753 10.5378 6.72369 10.5378 5.69059L10.5378 3.88246ZM7.58264 6.94709L6.7283 7.80135C6.50507 8.02458 6.20747 8.14736 5.89024 8.14736C5.57301 8.14736 5.27542 8.0245 5.05219 7.80135L2.36731 5.11639C1.90531 4.65422 1.90531 3.90235 2.36731 3.44027L3.22165 2.58601C3.28207 2.52551 3.36398 2.4916 3.4495 2.4916C3.53493 2.4916 3.61693 2.52551 3.67735 2.58601L4.89777 3.80643C4.95819 3.86685 4.9921 3.94884 4.9921 4.03428C4.9921 4.11971 4.95819 4.20171 4.89768 4.26213L4.63744 4.52238L5.64619 5.53114L5.90652 5.27081C6.03241 5.145 6.23643 5.145 6.36223 5.27089L7.58264 6.4913C7.64315 6.55173 7.67706 6.63372 7.67706 6.71915C7.67706 6.80467 7.64315 6.88667 7.58264 6.94709ZM5.26115 3.12858C5.26115 2.95066 5.40542 2.80631 5.58342 2.80631C6.70002 2.80631 7.60849 3.7147 7.60849 4.83121C7.60849 5.00922 7.46423 5.15348 7.28622 5.15348C7.10831 5.15348 6.96396 5.00922 6.96396 4.83121C6.96396 4.07011 6.34469 3.45084 5.58342 3.45084C5.40542 3.45084 5.26115 3.30658 5.26115 3.12858ZM8.66685 5.15365C8.48885 5.15365 8.34458 5.0093 8.34458 4.83138C8.34467 4.09378 8.0574 3.40041 7.5359 2.87882C7.01431 2.35732 6.32094 2.07005 5.58334 2.07005C5.40542 2.07005 5.26107 1.92579 5.26107 1.74779C5.26107 1.56987 5.40542 1.42552 5.58334 1.42552C6.49306 1.42552 7.34833 1.77985 7.9916 2.42312C8.63496 3.06639 8.9892 3.92165 8.98911 4.83138C8.98911 5.0093 8.84485 5.15365 8.66685 5.15365Z" fill="#BBBEC4"/>
</svg>
