<svg width="40" height="40" viewBox="0 0 37 40" fill="none" xmlns="http://www.w3.org/2000/svg">
<path d="M5.56613 7.45337C13.0728 7.45337 17.3165 13.4513 18.5 16.4503L11.2722 23.1055C6.24241 17.8882 -1.94058 7.45337 5.56613 7.45337Z" fill="#1A2D91"/>
<path d="M31.4339 7.45337C23.9272 7.45337 19.6835 13.4513 18.5 16.4503L25.7278 23.1055C30.7576 17.8882 38.9406 7.45337 31.4339 7.45337Z" fill="#3199D3"/>
<ellipse cx="18.5" cy="25.3416" rx="14.9521" ry="14.6584" fill="#FD8A20"/>
<ellipse cx="10.5171" cy="2.85714" rx="2.91439" ry="2.85714" fill="#3650A7"/>
<ellipse cx="24.9624" cy="2.85714" rx="2.91438" ry="2.85714" fill="#55C1FD"/>
<path d="M18.5 27.5474V23.344C25.8427 19.7774 33.0543 13.7907 34.2344 8.69568C38.9548 14.8097 37.5124 26.1463 30.8253 33.7888C38.9023 17.3828 25.9739 22.792 18.5 27.5474Z" fill="#55C1FD"/>
<path d="M18.5 27.5474V23.344C11.1573 19.7774 3.94566 13.7907 2.76558 8.69568C-1.95475 14.8097 -0.51243 26.1463 6.1747 33.7888C-1.9023 17.3828 11.0261 22.792 18.5 27.5474Z" fill="#3650A7"/>
</svg>
