<svg width="212" height="40" viewBox="0 0 212 40" fill="none" xmlns="http://www.w3.org/2000/svg">
<path d="M53.336 24.242C51.444 24.242 50.0947 23.7507 49.288 22.768C48.4813 21.7707 48.078 20.3113 48.078 18.39V11.746C48.078 9.82467 48.4813 8.38 49.288 7.412C50.0947 6.444 51.444 5.96 53.336 5.96C55.2133 5.96 56.5553 6.45133 57.362 7.434C58.1833 8.402 58.594 9.83933 58.594 11.746V18.412C58.594 20.3187 58.1833 21.7707 57.362 22.768C56.5553 23.7507 55.2133 24.242 53.336 24.242ZM53.336 21.646C53.952 21.646 54.3627 21.4407 54.568 21.03C54.788 20.6047 54.898 20.0253 54.898 19.292V10.866C54.898 10.1327 54.788 9.568 54.568 9.172C54.3627 8.76133 53.952 8.556 53.336 8.556C52.72 8.556 52.302 8.76133 52.082 9.172C51.8767 9.568 51.774 10.1327 51.774 10.866V19.292C51.774 20.04 51.8767 20.6193 52.082 21.03C52.2873 21.4407 52.7053 21.646 53.336 21.646ZM61.0178 6.18H66.6718C69.7518 6.18 71.2918 7.88867 71.2918 11.306C71.2918 13.11 70.8518 14.3933 69.9718 15.156C69.0918 15.904 67.8671 16.278 66.2978 16.278H64.6258V24H61.0178V6.18ZM65.9238 13.726C66.7011 13.726 67.2218 13.5427 67.4858 13.176C67.7498 12.8093 67.8818 12.164 67.8818 11.24C67.8818 10.6387 67.8378 10.1693 67.7498 9.832C67.6618 9.48 67.4711 9.20867 67.1778 9.018C66.8991 8.82733 66.4738 8.732 65.9018 8.732H64.6258V13.726H65.9238ZM74.807 8.864H72.057V6.18H81.165V8.864H78.459V24H74.807V8.864ZM82.8255 6.18H86.4335V24H82.8255V6.18ZM89.3828 6.18H93.2328L95.4328 17.422L97.7648 6.18H101.483L101.813 24H99.1728L98.8868 11.9L96.5988 24H94.3548L92.0008 11.834L91.7368 24H89.0748L89.3828 6.18ZM109.454 24.242C108.134 24.242 107.1 24.022 106.352 23.582C105.604 23.1273 105.076 22.4747 104.768 21.624C104.46 20.7733 104.306 19.688 104.306 18.368V6.18H107.87V18.874C107.87 19.7247 107.972 20.392 108.178 20.876C108.383 21.36 108.808 21.602 109.454 21.602C110.099 21.602 110.524 21.36 110.73 20.876C110.935 20.392 111.038 19.7247 111.038 18.874V6.18H114.624V18.368C114.624 19.688 114.47 20.7733 114.162 21.624C113.854 22.4747 113.318 23.1273 112.556 23.582C111.808 24.022 110.774 24.242 109.454 24.242ZM121.754 24.242C120.112 24.242 118.88 23.7947 118.058 22.9C117.237 21.9907 116.79 20.59 116.716 18.698L119.84 18.17C119.87 19.2993 120.024 20.1353 120.302 20.678C120.596 21.206 121.028 21.47 121.6 21.47C122.026 21.47 122.334 21.338 122.524 21.074C122.715 20.7953 122.81 20.4433 122.81 20.018C122.81 19.314 122.649 18.72 122.326 18.236C122.018 17.7373 121.527 17.1947 120.852 16.608L119.004 15.002C118.271 14.386 117.706 13.726 117.31 13.022C116.929 12.318 116.738 11.4747 116.738 10.492C116.738 9.04 117.164 7.92533 118.014 7.148C118.88 6.356 120.068 5.96 121.578 5.96C123.192 5.96 124.314 6.42933 124.944 7.368C125.575 8.292 125.934 9.47267 126.022 10.91L122.876 11.372C122.847 10.4333 122.737 9.744 122.546 9.304C122.37 8.84933 122.011 8.622 121.468 8.622C121.072 8.622 120.764 8.776 120.544 9.084C120.324 9.37733 120.214 9.72933 120.214 10.14C120.214 10.7267 120.339 11.2253 120.588 11.636C120.852 12.032 121.263 12.472 121.82 12.956L123.624 14.54C124.475 15.288 125.142 16.08 125.626 16.916C126.11 17.7373 126.352 18.7053 126.352 19.82C126.352 20.6707 126.162 21.4333 125.78 22.108C125.399 22.768 124.856 23.2887 124.152 23.67C123.463 24.0513 122.664 24.242 121.754 24.242ZM134.006 6.18H137.856L140.056 17.422L142.388 6.18H146.106L146.436 24H143.796L143.51 11.9L141.222 24H138.978L136.624 11.834L136.36 24H133.698L134.006 6.18ZM149.061 6.18H156.827V8.688H152.669V13.418H155.881V15.948H152.669V21.536H156.871V24H149.061V6.18ZM158.729 6.18H163.085C164.581 6.18 165.747 6.378 166.583 6.774C167.433 7.15533 168.035 7.74933 168.387 8.556C168.753 9.36267 168.937 10.4333 168.937 11.768V18.258C168.937 19.622 168.761 20.722 168.409 21.558C168.057 22.3793 167.463 22.9953 166.627 23.406C165.791 23.802 164.639 24 163.173 24H158.729V6.18ZM163.129 21.47C163.759 21.47 164.221 21.3747 164.515 21.184C164.823 20.9787 165.013 20.6853 165.087 20.304C165.175 19.9227 165.219 19.3727 165.219 18.654V11.284C165.219 10.6093 165.167 10.1033 165.065 9.766C164.977 9.414 164.786 9.15733 164.493 8.996C164.199 8.82 163.737 8.732 163.107 8.732H162.337V21.47H163.129ZM171.384 6.18H174.992V24H171.384V6.18ZM182.649 24.242C180.757 24.242 179.415 23.736 178.623 22.724C177.831 21.6973 177.435 20.2233 177.435 18.302V11.922C177.435 9.95667 177.824 8.47533 178.601 7.478C179.393 6.466 180.743 5.96 182.649 5.96C184.468 5.96 185.751 6.40733 186.499 7.302C187.262 8.182 187.643 9.45067 187.643 11.108V12.604H184.123V10.954C184.123 10.426 184.094 10.0007 184.035 9.678C183.991 9.35533 183.859 9.09133 183.639 8.886C183.434 8.666 183.111 8.556 182.671 8.556C182.011 8.556 181.586 8.76867 181.395 9.194C181.205 9.61933 181.109 10.2427 181.109 11.064V19.16C181.109 19.996 181.219 20.6193 181.439 21.03C181.659 21.4407 182.07 21.646 182.671 21.646C183.287 21.646 183.683 21.4407 183.859 21.03C184.035 20.6047 184.123 19.9813 184.123 19.16V17.422H187.643V18.896C187.643 20.5973 187.269 21.9173 186.521 22.856C185.773 23.78 184.483 24.242 182.649 24.242ZM194.876 24.242C193.556 24.242 192.522 24.022 191.774 23.582C191.026 23.1273 190.498 22.4747 190.19 21.624C189.882 20.7733 189.728 19.688 189.728 18.368V6.18H193.292V18.874C193.292 19.7247 193.394 20.392 193.6 20.876C193.805 21.36 194.23 21.602 194.876 21.602C195.521 21.602 195.946 21.36 196.152 20.876C196.357 20.392 196.46 19.7247 196.46 18.874V6.18H200.046V18.368C200.046 19.688 199.892 20.7733 199.584 21.624C199.276 22.4747 198.74 23.1273 197.978 23.582C197.23 24.022 196.196 24.242 194.876 24.242ZM207.176 24.242C205.534 24.242 204.302 23.7947 203.48 22.9C202.659 21.9907 202.212 20.59 202.138 18.698L205.262 18.17C205.292 19.2993 205.446 20.1353 205.724 20.678C206.018 21.206 206.45 21.47 207.022 21.47C207.448 21.47 207.756 21.338 207.946 21.074C208.137 20.7953 208.232 20.4433 208.232 20.018C208.232 19.314 208.071 18.72 207.748 18.236C207.44 17.7373 206.949 17.1947 206.274 16.608L204.426 15.002C203.693 14.386 203.128 13.726 202.732 13.022C202.351 12.318 202.16 11.4747 202.16 10.492C202.16 9.04 202.586 7.92533 203.436 7.148C204.302 6.356 205.49 5.96 207 5.96C208.614 5.96 209.736 6.42933 210.366 7.368C210.997 8.292 211.356 9.47267 211.444 10.91L208.298 11.372C208.269 10.4333 208.159 9.744 207.968 9.304C207.792 8.84933 207.433 8.622 206.89 8.622C206.494 8.622 206.186 8.776 205.966 9.084C205.746 9.37733 205.636 9.72933 205.636 10.14C205.636 10.7267 205.761 11.2253 206.01 11.636C206.274 12.032 206.685 12.472 207.242 12.956L209.046 14.54C209.897 15.288 210.564 16.08 211.048 16.916C211.532 17.7373 211.774 18.7053 211.774 19.82C211.774 20.6707 211.584 21.4333 211.202 22.108C210.821 22.768 210.278 23.2887 209.574 23.67C208.885 24.0513 208.086 24.242 207.176 24.242Z" fill="#3650A7"/>
<path d="M51.14 32.016H49.124V36H48.512V27.6H49.124V31.464H51.152L54.164 27.6H54.848L51.632 31.692L55.064 36H54.344L51.14 32.016ZM58.5283 29.688C59.3043 29.688 59.9003 29.888 60.3163 30.288C60.7323 30.68 60.9403 31.26 60.9403 32.028V36H60.3643V34.884C60.1643 35.252 59.8723 35.54 59.4883 35.748C59.1043 35.948 58.6443 36.048 58.1083 36.048C57.4123 36.048 56.8603 35.884 56.4523 35.556C56.0523 35.228 55.8523 34.796 55.8523 34.26C55.8523 33.74 56.0363 33.32 56.4043 33C56.7803 32.672 57.3763 32.508 58.1923 32.508H60.3403V32.004C60.3403 31.42 60.1803 30.976 59.8603 30.672C59.5483 30.368 59.0883 30.216 58.4803 30.216C58.0643 30.216 57.6643 30.288 57.2803 30.432C56.9043 30.576 56.5843 30.768 56.3203 31.008L56.0203 30.576C56.3323 30.296 56.7083 30.08 57.1483 29.928C57.5883 29.768 58.0483 29.688 58.5283 29.688ZM58.1923 35.556C58.7123 35.556 59.1523 35.436 59.5123 35.196C59.8803 34.956 60.1563 34.608 60.3403 34.152V32.976H58.2043C57.5883 32.976 57.1403 33.088 56.8603 33.312C56.5883 33.536 56.4523 33.844 56.4523 34.236C56.4523 34.644 56.6043 34.968 56.9083 35.208C57.2123 35.44 57.6403 35.556 58.1923 35.556ZM68.694 33.096H67.218V36H66.618V33.096H65.154L63.066 36H62.334L64.674 32.784L62.526 29.736H63.186L65.154 32.58H66.618V29.736H67.218V32.58H68.694L70.662 29.736H71.322L69.174 32.784L71.502 36H70.782L68.694 33.096ZM78.9497 35.472V37.56H78.3857V36H72.4577V37.56H71.8817V35.472H72.2537C72.6777 35.448 72.9657 35.12 73.1177 34.488C73.2777 33.848 73.3897 32.952 73.4537 31.8L73.5377 29.736H77.9417V35.472H78.9497ZM74.0057 31.836C73.9657 32.788 73.8857 33.58 73.7657 34.212C73.6457 34.844 73.4297 35.264 73.1177 35.472H77.3417V30.276H74.0777L74.0057 31.836ZM83.1938 32.016C83.9698 32.024 84.5618 32.196 84.9698 32.532C85.3778 32.86 85.5818 33.344 85.5818 33.984C85.5818 34.648 85.3658 35.156 84.9338 35.508C84.5018 35.86 83.8778 36.032 83.0618 36.024L80.7218 36V29.736H81.3218V31.992L83.1938 32.016ZM86.7338 29.736H87.3338V36H86.7338V29.736ZM83.0378 35.544C83.6778 35.552 84.1618 35.424 84.4898 35.16C84.8178 34.896 84.9818 34.504 84.9818 33.984C84.9818 33.48 84.8218 33.108 84.5018 32.868C84.1818 32.62 83.6938 32.488 83.0378 32.472L81.3218 32.46V35.52L83.0378 35.544ZM89.9093 29.736H90.5093V35.076L94.9733 29.736H95.5013V36H94.9013V30.66L90.4373 36H89.9093V29.736ZM92.6813 28.776C92.1773 28.776 91.7693 28.648 91.4573 28.392C91.1453 28.128 90.9853 27.764 90.9773 27.3H91.4213C91.4293 27.628 91.5493 27.888 91.7813 28.08C92.0213 28.272 92.3213 28.368 92.6813 28.368C93.0413 28.368 93.3373 28.272 93.5693 28.08C93.8013 27.888 93.9213 27.628 93.9293 27.3H94.3853C94.3773 27.764 94.2173 28.128 93.9053 28.392C93.5933 28.648 93.1853 28.776 92.6813 28.776ZM107.063 35.472V37.56H106.499V36H100.571V37.56H99.995V35.472H100.367C100.791 35.448 101.079 35.12 101.231 34.488C101.391 33.848 101.503 32.952 101.567 31.8L101.651 29.736H106.055V35.472H107.063ZM102.119 31.836C102.079 32.788 101.999 33.58 101.879 34.212C101.759 34.844 101.543 35.264 101.231 35.472H105.455V30.276H102.191L102.119 31.836ZM111.331 36.048C110.739 36.048 110.203 35.912 109.723 35.64C109.251 35.368 108.879 34.992 108.607 34.512C108.335 34.024 108.199 33.476 108.199 32.868C108.199 32.26 108.335 31.716 108.607 31.236C108.879 30.748 109.251 30.368 109.723 30.096C110.203 29.824 110.739 29.688 111.331 29.688C111.923 29.688 112.455 29.824 112.927 30.096C113.407 30.368 113.783 30.748 114.055 31.236C114.327 31.716 114.463 32.26 114.463 32.868C114.463 33.476 114.327 34.024 114.055 34.512C113.783 34.992 113.407 35.368 112.927 35.64C112.455 35.912 111.923 36.048 111.331 36.048ZM111.331 35.508C111.811 35.508 112.239 35.396 112.615 35.172C112.999 34.948 113.299 34.636 113.515 34.236C113.739 33.836 113.851 33.38 113.851 32.868C113.851 32.356 113.739 31.9 113.515 31.5C113.299 31.1 112.999 30.788 112.615 30.564C112.239 30.34 111.811 30.228 111.331 30.228C110.851 30.228 110.419 30.34 110.035 30.564C109.659 30.788 109.359 31.1 109.135 31.5C108.919 31.9 108.811 32.356 108.811 32.868C108.811 33.38 108.919 33.836 109.135 34.236C109.359 34.636 109.659 34.948 110.035 35.172C110.419 35.396 110.851 35.508 111.331 35.508ZM118.949 36.048C118.341 36.048 117.797 35.912 117.317 35.64C116.837 35.368 116.461 34.992 116.189 34.512C115.917 34.024 115.781 33.476 115.781 32.868C115.781 32.252 115.917 31.704 116.189 31.224C116.461 30.736 116.837 30.36 117.317 30.096C117.797 29.824 118.341 29.688 118.949 29.688C119.453 29.688 119.909 29.788 120.317 29.988C120.733 30.18 121.069 30.464 121.325 30.84L120.881 31.164C120.657 30.852 120.377 30.62 120.041 30.468C119.713 30.308 119.349 30.228 118.949 30.228C118.461 30.228 118.021 30.34 117.629 30.564C117.245 30.78 116.941 31.088 116.717 31.488C116.501 31.888 116.393 32.348 116.393 32.868C116.393 33.388 116.501 33.848 116.717 34.248C116.941 34.648 117.245 34.96 117.629 35.184C118.021 35.4 118.461 35.508 118.949 35.508C119.349 35.508 119.713 35.432 120.041 35.28C120.377 35.12 120.657 34.884 120.881 34.572L121.325 34.896C121.069 35.272 120.733 35.56 120.317 35.76C119.909 35.952 119.453 36.048 118.949 36.048ZM127.144 30.276H124.696V36H124.096V30.276H121.648V29.736H127.144V30.276ZM130.632 36.048C130.04 36.048 129.504 35.912 129.024 35.64C128.552 35.368 128.18 34.992 127.908 34.512C127.636 34.024 127.5 33.476 127.5 32.868C127.5 32.26 127.636 31.716 127.908 31.236C128.18 30.748 128.552 30.368 129.024 30.096C129.504 29.824 130.04 29.688 130.632 29.688C131.224 29.688 131.756 29.824 132.228 30.096C132.708 30.368 133.084 30.748 133.356 31.236C133.628 31.716 133.764 32.26 133.764 32.868C133.764 33.476 133.628 34.024 133.356 34.512C133.084 34.992 132.708 35.368 132.228 35.64C131.756 35.912 131.224 36.048 130.632 36.048ZM130.632 35.508C131.112 35.508 131.54 35.396 131.916 35.172C132.3 34.948 132.6 34.636 132.816 34.236C133.04 33.836 133.152 33.38 133.152 32.868C133.152 32.356 133.04 31.9 132.816 31.5C132.6 31.1 132.3 30.788 131.916 30.564C131.54 30.34 131.112 30.228 130.632 30.228C130.152 30.228 129.72 30.34 129.336 30.564C128.96 30.788 128.66 31.1 128.436 31.5C128.22 31.9 128.112 32.356 128.112 32.868C128.112 33.38 128.22 33.836 128.436 34.236C128.66 34.636 128.96 34.948 129.336 35.172C129.72 35.396 130.152 35.508 130.632 35.508ZM135.718 29.736H136.318V35.076L140.782 29.736H141.31V36H140.71V30.66L136.246 36H135.718V29.736ZM143.898 29.736H144.498V32.592H148.746V29.736H149.346V36H148.746V33.12H144.498V36H143.898V29.736ZM159.915 29.736V36H159.315V30.276H156.051L155.967 31.944C155.919 32.808 155.847 33.532 155.751 34.116C155.655 34.7 155.491 35.172 155.259 35.532C155.027 35.892 154.707 36.072 154.299 36.072C154.179 36.072 154.007 36.044 153.783 35.988L153.843 35.472C153.971 35.504 154.067 35.52 154.131 35.52C154.467 35.52 154.723 35.356 154.899 35.028C155.075 34.7 155.195 34.292 155.259 33.804C155.323 33.316 155.375 32.68 155.415 31.896L155.523 29.736H159.915ZM167.607 29.736L164.391 36.852C164.151 37.404 163.871 37.796 163.551 38.028C163.239 38.26 162.867 38.376 162.435 38.376C162.147 38.376 161.875 38.328 161.619 38.232C161.371 38.136 161.159 37.996 160.983 37.812L161.283 37.356C161.603 37.684 161.991 37.848 162.447 37.848C162.751 37.848 163.011 37.764 163.227 37.596C163.443 37.428 163.643 37.14 163.827 36.732L164.163 35.976L161.343 29.736H161.979L164.487 35.34L166.995 29.736H167.607ZM173.558 29.736V36H172.958V33.3C172.214 33.644 171.47 33.816 170.726 33.816C169.99 33.816 169.41 33.648 168.986 33.312C168.57 32.976 168.362 32.48 168.362 31.824V29.736H168.962V31.788C168.962 32.276 169.126 32.652 169.454 32.916C169.782 33.18 170.234 33.312 170.81 33.312C171.466 33.312 172.182 33.148 172.958 32.82V29.736H173.558ZM184.572 29.736V36H176.148V29.736H176.748V35.472H180.072V29.736H180.672V35.472H183.972V29.736H184.572ZM192.503 33.012H187.115C187.131 33.5 187.255 33.936 187.487 34.32C187.719 34.696 188.031 34.988 188.423 35.196C188.823 35.404 189.271 35.508 189.767 35.508C190.175 35.508 190.551 35.436 190.895 35.292C191.247 35.14 191.539 34.92 191.771 34.632L192.119 35.028C191.847 35.356 191.503 35.608 191.087 35.784C190.679 35.96 190.235 36.048 189.755 36.048C189.131 36.048 188.575 35.912 188.087 35.64C187.599 35.368 187.215 34.992 186.935 34.512C186.663 34.032 186.527 33.484 186.527 32.868C186.527 32.26 186.655 31.716 186.911 31.236C187.175 30.748 187.535 30.368 187.991 30.096C188.447 29.824 188.959 29.688 189.527 29.688C190.095 29.688 190.603 29.824 191.051 30.096C191.507 30.36 191.863 30.732 192.119 31.212C192.383 31.692 192.515 32.236 192.515 32.844L192.503 33.012ZM189.527 30.216C189.087 30.216 188.691 30.316 188.339 30.516C187.987 30.708 187.703 30.984 187.487 31.344C187.279 31.696 187.159 32.096 187.127 32.544H191.927C191.903 32.096 191.783 31.696 191.567 31.344C191.351 30.992 191.067 30.716 190.715 30.516C190.363 30.316 189.967 30.216 189.527 30.216ZM198.76 30.276H195.076V36H194.476V29.736H198.76V30.276ZM202.245 36.048C201.653 36.048 201.117 35.912 200.637 35.64C200.165 35.368 199.793 34.992 199.521 34.512C199.249 34.024 199.113 33.476 199.113 32.868C199.113 32.26 199.249 31.716 199.521 31.236C199.793 30.748 200.165 30.368 200.637 30.096C201.117 29.824 201.653 29.688 202.245 29.688C202.837 29.688 203.369 29.824 203.841 30.096C204.321 30.368 204.697 30.748 204.969 31.236C205.241 31.716 205.377 32.26 205.377 32.868C205.377 33.476 205.241 34.024 204.969 34.512C204.697 34.992 204.321 35.368 203.841 35.64C203.369 35.912 202.837 36.048 202.245 36.048ZM202.245 35.508C202.725 35.508 203.153 35.396 203.529 35.172C203.913 34.948 204.213 34.636 204.429 34.236C204.653 33.836 204.765 33.38 204.765 32.868C204.765 32.356 204.653 31.9 204.429 31.5C204.213 31.1 203.913 30.788 203.529 30.564C203.153 30.34 202.725 30.228 202.245 30.228C201.765 30.228 201.333 30.34 200.949 30.564C200.573 30.788 200.273 31.1 200.049 31.5C199.833 31.9 199.725 32.356 199.725 32.868C199.725 33.38 199.833 33.836 200.049 34.236C200.273 34.636 200.573 34.948 200.949 35.172C201.333 35.396 201.765 35.508 202.245 35.508Z" fill="#313131"/>
<path d="M5.56613 7.45337C13.0728 7.45337 17.3165 13.4513 18.5 16.4503L11.2722 23.1055C6.24241 17.8882 -1.94058 7.45337 5.56613 7.45337Z" fill="#1A2D91"/>
<path d="M31.4339 7.45337C23.9272 7.45337 19.6835 13.4513 18.5 16.4503L25.7278 23.1055C30.7576 17.8882 38.9406 7.45337 31.4339 7.45337Z" fill="#3199D3"/>
<ellipse cx="18.5" cy="25.3416" rx="14.9521" ry="14.6584" fill="#FD8A20"/>
<ellipse cx="10.5171" cy="2.85714" rx="2.91439" ry="2.85714" fill="#3650A7"/>
<ellipse cx="24.9624" cy="2.85714" rx="2.91438" ry="2.85714" fill="#55C1FD"/>
<path d="M18.5 27.5474V23.344C25.8427 19.7774 33.0543 13.7907 34.2344 8.69568C38.9548 14.8097 37.5124 26.1463 30.8253 33.7888C38.9023 17.3828 25.9739 22.792 18.5 27.5474Z" fill="#55C1FD"/>
<path d="M18.5 27.5474V23.344C11.1573 19.7774 3.94566 13.7907 2.76558 8.69568C-1.95475 14.8097 -0.51243 26.1463 6.1747 33.7888C-1.9023 17.3828 11.0261 22.792 18.5 27.5474Z" fill="#3650A7"/>
</svg>
